<svg width="485" height="151" viewBox="0 0 485 151" fill="none" xmlns="http://www.w3.org/2000/svg">
<g filter="url(#filter0_d)">
<path d="M22.9 18.35C19.2667 18.35 16.6333 19.3667 15 21.4C13.4 23.4 12.6 26.15 12.6 29.65C12.6 31.35 12.8 32.9 13.2 34.3C13.6 35.6667 14.2 36.85 15 37.85C15.8 38.85 16.8 39.6333 18 40.2C19.2 40.7333 20.6 41 22.2 41C23.0667 41 23.8 40.9833 24.4 40.95C25.0333 40.9167 25.5833 40.85 26.05 40.75V28.7H33.85V45.85C32.9167 46.2167 31.4167 46.6 29.35 47C27.2833 47.4333 24.7333 47.65 21.7 47.65C19.1 47.65 16.7333 47.25 14.6 46.45C12.5 45.65 10.7 44.4833 9.2 42.95C7.7 41.4167 6.53333 39.5333 5.7 37.3C4.9 35.0667 4.5 32.5167 4.5 29.65C4.5 26.75 4.95 24.1833 5.85 21.95C6.75 19.7167 7.98333 17.8333 9.55 16.3C11.1167 14.7333 12.95 13.55 15.05 12.75C17.1833 11.95 19.45 11.55 21.85 11.55C23.4833 11.55 24.95 11.6667 26.25 11.9C27.5833 12.1 28.7167 12.35 29.65 12.65C30.6167 12.9167 31.4 13.2 32 13.5C32.6333 13.8 33.0833 14.0333 33.35 14.2L31.1 20.45C30.0333 19.8833 28.8 19.4 27.4 19C26.0333 18.5667 24.5333 18.35 22.9 18.35ZM64.2574 40.3V47H41.1074V12.35H48.9074V40.3H64.2574ZM69.2813 47V12.35H92.6813V18.9H77.0813V25.7H90.9313V32.1H77.0813V40.45H93.8313V47H69.2813ZM122.854 47C120.62 43.0333 118.204 39.1167 115.604 35.25C113.004 31.3833 110.237 27.7333 107.304 24.3V47H99.6035V12.35H105.954C107.054 13.45 108.27 14.8 109.604 16.4C110.937 18 112.287 19.7167 113.654 21.55C115.054 23.35 116.437 25.2333 117.804 27.2C119.17 29.1333 120.454 31 121.654 32.8V12.35H129.404V47H122.854ZM160.646 47C158.413 43.0333 155.996 39.1167 153.396 35.25C150.796 31.3833 148.03 27.7333 145.096 24.3V47H137.396V12.35H143.746C144.846 13.45 146.063 14.8 147.396 16.4C148.73 18 150.08 19.7167 151.446 21.55C152.846 23.35 154.23 25.2333 155.596 27.2C156.963 29.1333 158.246 31 159.446 32.8V12.35H167.196V47H160.646Z" fill="black"/>
</g>
<g filter="url(#filter1_d)">
<path d="M126.2 94C125.833 92.8 125.417 91.5667 124.95 90.3C124.517 89.0333 124.083 87.7667 123.65 86.5H110.15C109.717 87.7667 109.267 89.0333 108.8 90.3C108.367 91.5667 107.967 92.8 107.6 94H99.5C100.8 90.2667 102.033 86.8167 103.2 83.65C104.367 80.4833 105.5 77.5 106.6 74.7C107.733 71.9 108.833 69.25 109.9 66.75C111 64.2167 112.133 61.75 113.3 59.35H120.75C121.883 61.75 123 64.2167 124.1 66.75C125.2 69.25 126.3 71.9 127.4 74.7C128.533 77.5 129.683 80.4833 130.85 83.65C132.017 86.8167 133.25 90.2667 134.55 94H126.2ZM116.85 67.2C116.683 67.7 116.433 68.3833 116.1 69.25C115.767 70.1167 115.383 71.1167 114.95 72.25C114.517 73.3833 114.033 74.6333 113.5 76C113 77.3667 112.483 78.8 111.95 80.3H121.8C121.267 78.8 120.75 77.3667 120.25 76C119.75 74.6333 119.267 73.3833 118.8 72.25C118.367 71.1167 117.983 70.1167 117.65 69.25C117.317 68.3833 117.05 67.7 116.85 67.2ZM149.185 58.95C154.385 58.95 158.368 59.8833 161.135 61.75C163.902 63.5833 165.285 66.45 165.285 70.35C165.285 72.7833 164.718 74.7667 163.585 76.3C162.485 77.8 160.885 78.9833 158.785 79.85C159.485 80.7167 160.218 81.7167 160.985 82.85C161.752 83.95 162.502 85.1167 163.235 86.35C164.002 87.55 164.735 88.8167 165.435 90.15C166.135 91.45 166.785 92.7333 167.385 94H158.635C158.002 92.8667 157.352 91.7167 156.685 90.55C156.052 89.3833 155.385 88.25 154.685 87.15C154.018 86.05 153.352 85.0167 152.685 84.05C152.018 83.05 151.352 82.15 150.685 81.35H146.835V94H139.035V59.85C140.735 59.5167 142.485 59.2833 144.285 59.15C146.118 59.0167 147.752 58.95 149.185 58.95ZM149.635 65.6C149.068 65.6 148.552 65.6167 148.085 65.65C147.652 65.6833 147.235 65.7167 146.835 65.75V75.15H149.035C151.968 75.15 154.068 74.7833 155.335 74.05C156.602 73.3167 157.235 72.0667 157.235 70.3C157.235 68.6 156.585 67.4 155.285 66.7C154.018 65.9667 152.135 65.6 149.635 65.6ZM195.635 94C193.401 90.0333 190.985 86.1167 188.385 82.25C185.785 78.3833 183.018 74.7333 180.085 71.3V94H172.385V59.35H178.735C179.835 60.45 181.051 61.8 182.385 63.4C183.718 65 185.068 66.7167 186.435 68.55C187.835 70.35 189.218 72.2333 190.585 74.2C191.951 76.1333 193.235 78 194.435 79.8V59.35H202.185V94H195.635ZM216.728 76.65C216.728 78.35 216.928 79.8833 217.328 81.25C217.761 82.6167 218.361 83.8 219.128 84.8C219.928 85.7667 220.894 86.5167 222.028 87.05C223.161 87.5833 224.461 87.85 225.928 87.85C227.361 87.85 228.644 87.5833 229.778 87.05C230.944 86.5167 231.911 85.7667 232.678 84.8C233.478 83.8 234.078 82.6167 234.478 81.25C234.911 79.8833 235.128 78.35 235.128 76.65C235.128 74.95 234.911 73.4167 234.478 72.05C234.078 70.65 233.478 69.4667 232.678 68.5C231.911 67.5 230.944 66.7333 229.778 66.2C228.644 65.6667 227.361 65.4 225.928 65.4C224.461 65.4 223.161 65.6833 222.028 66.25C220.894 66.7833 219.928 67.55 219.128 68.55C218.361 69.5167 217.761 70.7 217.328 72.1C216.928 73.4667 216.728 74.9833 216.728 76.65ZM243.178 76.65C243.178 79.6167 242.728 82.2333 241.828 84.5C240.961 86.7333 239.761 88.6167 238.228 90.15C236.694 91.65 234.861 92.7833 232.728 93.55C230.628 94.3167 228.361 94.7 225.928 94.7C223.561 94.7 221.328 94.3167 219.228 93.55C217.128 92.7833 215.294 91.65 213.728 90.15C212.161 88.6167 210.928 86.7333 210.028 84.5C209.128 82.2333 208.678 79.6167 208.678 76.65C208.678 73.6833 209.144 71.0833 210.078 68.85C211.011 66.5833 212.261 64.6833 213.828 63.15C215.428 61.6167 217.261 60.4667 219.328 59.7C221.428 58.9333 223.628 58.55 225.928 58.55C228.294 58.55 230.528 58.9333 232.628 59.7C234.728 60.4667 236.561 61.6167 238.128 63.15C239.694 64.6833 240.928 66.5833 241.828 68.85C242.728 71.0833 243.178 73.6833 243.178 76.65ZM272.83 87.3V94H249.68V59.35H257.48V87.3H272.83ZM285.654 87.65C286.02 87.6833 286.437 87.7167 286.904 87.75C287.404 87.75 287.987 87.75 288.654 87.75C292.554 87.75 295.437 86.7667 297.304 84.8C299.204 82.8333 300.154 80.1167 300.154 76.65C300.154 73.0167 299.254 70.2667 297.454 68.4C295.654 66.5333 292.804 65.6 288.904 65.6C288.37 65.6 287.82 65.6167 287.254 65.65C286.687 65.65 286.154 65.6833 285.654 65.75V87.65ZM308.204 76.65C308.204 79.65 307.737 82.2667 306.804 84.5C305.87 86.7333 304.537 88.5833 302.804 90.05C301.104 91.5167 299.02 92.6167 296.554 93.35C294.087 94.0833 291.32 94.45 288.254 94.45C286.854 94.45 285.22 94.3833 283.354 94.25C281.487 94.15 279.654 93.9167 277.854 93.55V59.8C279.654 59.4667 281.52 59.25 283.454 59.15C285.42 59.0167 287.104 58.95 288.504 58.95C291.47 58.95 294.154 59.2833 296.554 59.95C298.987 60.6167 301.07 61.6667 302.804 63.1C304.537 64.5333 305.87 66.3667 306.804 68.6C307.737 70.8333 308.204 73.5167 308.204 76.65Z" fill="black"/>
</g>
<g filter="url(#filter2_d)">
<path d="M261.55 141.45C259.65 141.45 257.75 141.383 255.85 141.25C253.983 141.15 252.033 140.883 250 140.45V106.85C251.6 106.55 253.35 106.333 255.25 106.2C257.15 106.033 258.917 105.95 260.55 105.95C262.75 105.95 264.767 106.117 266.6 106.45C268.467 106.75 270.067 107.283 271.4 108.05C272.733 108.817 273.767 109.833 274.5 111.1C275.267 112.333 275.65 113.867 275.65 115.7C275.65 118.467 274.317 120.65 271.65 122.25C273.85 123.083 275.35 124.217 276.15 125.65C276.95 127.083 277.35 128.7 277.35 130.5C277.35 134.133 276.017 136.867 273.35 138.7C270.717 140.533 266.783 141.45 261.55 141.45ZM257.6 125.9V134.85C258.167 134.917 258.783 134.967 259.45 135C260.117 135.033 260.85 135.05 261.65 135.05C263.983 135.05 265.867 134.717 267.3 134.05C268.733 133.383 269.45 132.15 269.45 130.35C269.45 128.75 268.85 127.617 267.65 126.95C266.45 126.25 264.733 125.9 262.5 125.9H257.6ZM257.6 119.95H261.4C263.8 119.95 265.517 119.65 266.55 119.05C267.583 118.417 268.1 117.417 268.1 116.05C268.1 114.65 267.567 113.667 266.5 113.1C265.433 112.533 263.867 112.25 261.8 112.25C261.133 112.25 260.417 112.267 259.65 112.3C258.883 112.3 258.2 112.333 257.6 112.4V119.95ZM306.305 141C305.939 139.8 305.522 138.567 305.055 137.3C304.622 136.033 304.189 134.767 303.755 133.5H290.255C289.822 134.767 289.372 136.033 288.905 137.3C288.472 138.567 288.072 139.8 287.705 141H279.605C280.905 137.267 282.139 133.817 283.305 130.65C284.472 127.483 285.605 124.5 286.705 121.7C287.839 118.9 288.939 116.25 290.005 113.75C291.105 111.217 292.239 108.75 293.405 106.35H300.855C301.989 108.75 303.105 111.217 304.205 113.75C305.305 116.25 306.405 118.9 307.505 121.7C308.639 124.5 309.789 127.483 310.955 130.65C312.122 133.817 313.355 137.267 314.655 141H306.305ZM296.955 114.2C296.789 114.7 296.539 115.383 296.205 116.25C295.872 117.117 295.489 118.117 295.055 119.25C294.622 120.383 294.139 121.633 293.605 123C293.105 124.367 292.589 125.8 292.055 127.3H301.905C301.372 125.8 300.855 124.367 300.355 123C299.855 121.633 299.372 120.383 298.905 119.25C298.472 118.117 298.089 117.117 297.755 116.25C297.422 115.383 297.155 114.7 296.955 114.2ZM329.291 105.95C334.491 105.95 338.474 106.883 341.241 108.75C344.007 110.583 345.391 113.45 345.391 117.35C345.391 119.783 344.824 121.767 343.691 123.3C342.591 124.8 340.991 125.983 338.891 126.85C339.591 127.717 340.324 128.717 341.091 129.85C341.857 130.95 342.607 132.117 343.341 133.35C344.107 134.55 344.841 135.817 345.541 137.15C346.241 138.45 346.891 139.733 347.491 141H338.741C338.107 139.867 337.457 138.717 336.791 137.55C336.157 136.383 335.491 135.25 334.791 134.15C334.124 133.05 333.457 132.017 332.791 131.05C332.124 130.05 331.457 129.15 330.791 128.35H326.941V141H319.141V106.85C320.841 106.517 322.591 106.283 324.391 106.15C326.224 106.017 327.857 105.95 329.291 105.95ZM329.741 112.6C329.174 112.6 328.657 112.617 328.191 112.65C327.757 112.683 327.341 112.717 326.941 112.75V122.15H329.141C332.074 122.15 334.174 121.783 335.441 121.05C336.707 120.317 337.341 119.067 337.341 117.3C337.341 115.6 336.691 114.4 335.391 113.7C334.124 112.967 332.241 112.6 329.741 112.6ZM358.161 123.65C358.161 125.35 358.361 126.883 358.761 128.25C359.195 129.617 359.795 130.8 360.561 131.8C361.361 132.767 362.328 133.517 363.461 134.05C364.595 134.583 365.895 134.85 367.361 134.85C368.795 134.85 370.078 134.583 371.211 134.05C372.378 133.517 373.345 132.767 374.111 131.8C374.911 130.8 375.511 129.617 375.911 128.25C376.345 126.883 376.561 125.35 376.561 123.65C376.561 121.95 376.345 120.417 375.911 119.05C375.511 117.65 374.911 116.467 374.111 115.5C373.345 114.5 372.378 113.733 371.211 113.2C370.078 112.667 368.795 112.4 367.361 112.4C365.895 112.4 364.595 112.683 363.461 113.25C362.328 113.783 361.361 114.55 360.561 115.55C359.795 116.517 359.195 117.7 358.761 119.1C358.361 120.467 358.161 121.983 358.161 123.65ZM384.611 123.65C384.611 126.617 384.161 129.233 383.261 131.5C382.395 133.733 381.195 135.617 379.661 137.15C378.128 138.65 376.295 139.783 374.161 140.55C372.061 141.317 369.795 141.7 367.361 141.7C364.995 141.7 362.761 141.317 360.661 140.55C358.561 139.783 356.728 138.65 355.161 137.15C353.595 135.617 352.361 133.733 351.461 131.5C350.561 129.233 350.111 126.617 350.111 123.65C350.111 120.683 350.578 118.083 351.511 115.85C352.445 113.583 353.695 111.683 355.261 110.15C356.861 108.617 358.695 107.467 360.761 106.7C362.861 105.933 365.061 105.55 367.361 105.55C369.728 105.55 371.961 105.933 374.061 106.7C376.161 107.467 377.995 108.617 379.561 110.15C381.128 111.683 382.361 113.583 383.261 115.85C384.161 118.083 384.611 120.683 384.611 123.65ZM400.563 135.05C401.663 135.05 402.563 134.967 403.263 134.8C403.997 134.6 404.58 134.35 405.013 134.05C405.447 133.717 405.747 133.333 405.913 132.9C406.08 132.467 406.163 131.983 406.163 131.45C406.163 130.317 405.63 129.383 404.563 128.65C403.497 127.883 401.663 127.067 399.063 126.2C397.93 125.8 396.797 125.35 395.663 124.85C394.53 124.317 393.513 123.667 392.613 122.9C391.713 122.1 390.98 121.15 390.413 120.05C389.847 118.917 389.563 117.55 389.563 115.95C389.563 114.35 389.863 112.917 390.463 111.65C391.063 110.35 391.913 109.25 393.013 108.35C394.113 107.45 395.447 106.767 397.013 106.3C398.58 105.8 400.347 105.55 402.313 105.55C404.647 105.55 406.663 105.8 408.363 106.3C410.063 106.8 411.463 107.35 412.563 107.95L410.313 114.1C409.347 113.6 408.263 113.167 407.063 112.8C405.897 112.4 404.48 112.2 402.813 112.2C400.947 112.2 399.597 112.467 398.763 113C397.963 113.5 397.563 114.283 397.563 115.35C397.563 115.983 397.713 116.517 398.013 116.95C398.313 117.383 398.73 117.783 399.263 118.15C399.83 118.483 400.463 118.8 401.163 119.1C401.897 119.367 402.697 119.65 403.563 119.95C405.363 120.617 406.93 121.283 408.263 121.95C409.597 122.583 410.697 123.333 411.563 124.2C412.463 125.067 413.13 126.083 413.563 127.25C413.997 128.417 414.213 129.833 414.213 131.5C414.213 134.733 413.08 137.25 410.813 139.05C408.547 140.817 405.13 141.7 400.563 141.7C399.03 141.7 397.647 141.6 396.413 141.4C395.18 141.233 394.08 141.017 393.113 140.75C392.18 140.483 391.363 140.2 390.663 139.9C389.997 139.6 389.43 139.317 388.963 139.05L391.163 132.85C392.197 133.417 393.463 133.933 394.963 134.4C396.497 134.833 398.363 135.05 400.563 135.05ZM420.215 141V106.35H443.615V112.9H428.015V119.7H441.865V126.1H428.015V134.45H444.765V141H420.215ZM473.787 141C471.554 137.033 469.137 133.117 466.537 129.25C463.937 125.383 461.17 121.733 458.237 118.3V141H450.537V106.35H456.887C457.987 107.45 459.204 108.8 460.537 110.4C461.87 112 463.22 113.717 464.587 115.55C465.987 117.35 467.37 119.233 468.737 121.2C470.104 123.133 471.387 125 472.587 126.8V106.35H480.337V141H473.787Z" fill="black"/>
</g>
<defs>
<filter id="filter0_d" x="0.5" y="11.55" width="170.696" height="44.1" filterUnits="userSpaceOnUse" color-interpolation-filters="sRGB">
<feFlood flood-opacity="0" result="BackgroundImageFix"/>
<feColorMatrix in="SourceAlpha" type="matrix" values="0 0 0 0 0 0 0 0 0 0 0 0 0 0 0 0 0 0 127 0"/>
<feOffset dy="4"/>
<feGaussianBlur stdDeviation="2"/>
<feColorMatrix type="matrix" values="0 0 0 0 0 0 0 0 0 0 0 0 0 0 0 0 0 0 0.25 0"/>
<feBlend mode="normal" in2="BackgroundImageFix" result="effect1_dropShadow"/>
<feBlend mode="normal" in="SourceGraphic" in2="effect1_dropShadow" result="shape"/>
</filter>
<filter id="filter1_d" x="95.5" y="58.55" width="216.704" height="44.15" filterUnits="userSpaceOnUse" color-interpolation-filters="sRGB">
<feFlood flood-opacity="0" result="BackgroundImageFix"/>
<feColorMatrix in="SourceAlpha" type="matrix" values="0 0 0 0 0 0 0 0 0 0 0 0 0 0 0 0 0 0 127 0"/>
<feOffset dy="4"/>
<feGaussianBlur stdDeviation="2"/>
<feColorMatrix type="matrix" values="0 0 0 0 0 0 0 0 0 0 0 0 0 0 0 0 0 0 0.25 0"/>
<feBlend mode="normal" in2="BackgroundImageFix" result="effect1_dropShadow"/>
<feBlend mode="normal" in="SourceGraphic" in2="effect1_dropShadow" result="shape"/>
</filter>
<filter id="filter2_d" x="246" y="105.55" width="238.337" height="44.15" filterUnits="userSpaceOnUse" color-interpolation-filters="sRGB">
<feFlood flood-opacity="0" result="BackgroundImageFix"/>
<feColorMatrix in="SourceAlpha" type="matrix" values="0 0 0 0 0 0 0 0 0 0 0 0 0 0 0 0 0 0 127 0"/>
<feOffset dy="4"/>
<feGaussianBlur stdDeviation="2"/>
<feColorMatrix type="matrix" values="0 0 0 0 0 0 0 0 0 0 0 0 0 0 0 0 0 0 0.25 0"/>
<feBlend mode="normal" in2="BackgroundImageFix" result="effect1_dropShadow"/>
<feBlend mode="normal" in="SourceGraphic" in2="effect1_dropShadow" result="shape"/>
</filter>
</defs>
</svg>
